name rise31.4854peak64.571fall78.6902.mot
datacolumns 19
datarows 21
range 6.249980 6.283315
endheader
time	ground_force1_vx	ground_force1_vy	ground_force1_vz	ground_force1_px	ground_force1_py	ground_force1_pz	ground_force2_vx	ground_force2_vy	ground_force2_vz	ground_force2_px	ground_force2_py	ground_force2_pz	ground_torque1_x	ground_torque1_y	ground_torque1_z	ground_torque2_x	ground_torque2_y	ground_torque2_z	
6.249980	33.108805	321.788541	-2.958968	0.399698	0.000000	0.088288	-69.461837	592.998810	-22.092553	0.111314	0.000000	-0.089386	0.000000	-8.599874	0.000000	0.000000	-18.625444	0.000000	
6.251641	34.922520	330.560254	-1.760039	0.400574	0.000000	0.088479	-69.832615	585.220792	-21.113215	0.111115	0.000000	-0.089090	0.000000	-7.945017	0.000000	0.000000	-18.508703	0.000000	
6.253308	36.739917	339.317473	-0.531330	0.401390	0.000000	0.088664	-70.155144	577.280950	-20.132473	0.110934	0.000000	-0.088789	0.000000	-7.266698	0.000000	0.000000	-18.382416	0.000000	
6.254978	38.557405	348.056820	0.723865	0.402146	0.000000	0.088844	-70.427122	569.181276	-19.151548	0.110770	0.000000	-0.088484	0.000000	-6.567208	0.000000	0.000000	-18.246238	0.000000	
6.256642	40.371575	356.774555	2.002428	0.402842	0.000000	0.089019	-70.646344	560.924112	-18.171699	0.110623	0.000000	-0.088174	0.000000	-5.848721	0.000000	0.000000	-18.099857	0.000000	
6.258309	42.179190	365.466607	3.301411	0.403475	0.000000	0.089189	-70.810718	552.512168	-17.194213	0.110492	0.000000	-0.087860	0.000000	-5.113309	0.000000	0.000000	-17.942994	0.000000	
6.259975	43.977168	374.128653	4.618010	0.404045	0.000000	0.089353	-70.918278	543.948546	-16.220404	0.110377	0.000000	-0.087541	0.000000	-4.362952	0.000000	0.000000	-17.775410	0.000000	
6.261648	45.762564	382.756219	5.949538	0.404551	0.000000	0.089513	-70.967186	535.236768	-15.251602	0.110276	0.000000	-0.087219	0.000000	-3.599563	0.000000	0.000000	-17.596903	0.000000	
6.263310	47.532545	391.344798	7.293388	0.404992	0.000000	0.089668	-70.955754	526.380808	-14.289148	0.110188	0.000000	-0.086892	0.000000	-2.825014	0.000000	0.000000	-17.407311	0.000000	
6.264976	49.284373	399.889969	8.647010	0.405367	0.000000	0.089819	-70.882441	517.385122	-13.334383	0.110112	0.000000	-0.086561	0.000000	-2.041153	0.000000	0.000000	-17.206511	0.000000	
6.266643	51.015383	408.387513	10.007874	0.405674	0.000000	0.089965	-70.745868	508.254680	-12.388639	0.110047	0.000000	-0.086225	0.000000	-1.249833	0.000000	0.000000	-16.994424	0.000000	
6.268327	52.722979	416.833504	11.373457	0.405913	0.000000	0.090106	-70.544820	498.994989	-11.453231	0.109991	0.000000	-0.085886	0.000000	-0.452919	0.000000	0.000000	-16.771008	0.000000	
6.269977	54.404622	425.224395	12.741226	0.406084	0.000000	0.090243	-70.278253	489.612112	-10.529449	0.109944	0.000000	-0.085543	0.000000	0.347696	0.000000	0.000000	-16.536266	0.000000	
6.271647	56.057829	433.557066	14.108633	0.406185	0.000000	0.090376	-69.945294	480.112669	-9.618549	0.109903	0.000000	-0.085197	0.000000	1.150094	0.000000	0.000000	-16.290236	0.000000	
6.273310	57.680180	441.828862	15.473119	0.406216	0.000000	0.090505	-69.545245	470.503827	-8.721747	0.109866	0.000000	-0.084846	0.000000	1.952331	0.000000	0.000000	-16.033000	0.000000	
6.274979	59.269322	450.037597	16.832122	0.406176	0.000000	0.090629	-69.077581	460.793270	-7.840216	0.109832	0.000000	-0.084492	0.000000	2.752449	0.000000	0.000000	-15.764676	0.000000	
6.276646	60.822981	458.181551	18.183090	0.406066	0.000000	0.090750	-68.541954	450.989138	-6.975086	0.109799	0.000000	-0.084135	0.000000	3.548485	0.000000	0.000000	-15.485421	0.000000	
6.278315	62.338977	466.259442	19.523503	0.405884	0.000000	0.090867	-67.938190	441.099959	-6.127444	0.109765	0.000000	-0.083774	0.000000	4.338491	0.000000	0.000000	-15.195431	0.000000	
6.279976	63.815232	474.270387	20.850889	0.405632	0.000000	0.090980	-67.266291	431.134540	-5.298341	0.109728	0.000000	-0.083409	0.000000	5.120548	0.000000	0.000000	-14.894940	0.000000	
6.281641	65.249790	482.213862	22.162847	0.405309	0.000000	0.091089	-66.526435	421.101852	-4.488799	0.109684	0.000000	-0.083042	0.000000	5.892788	0.000000	0.000000	-14.584221	0.000000	
6.283315	66.640824	490.089648	23.457069	0.404915	0.000000	0.091194	-65.718983	411.010899	-3.699822	0.109633	0.000000	-0.082671	0.000000	6.653412	0.000000	0.000000	-14.263590	0.000000	
